#N canvas 608 166 454 387 10;
#X obj 44 21 r LAT;
#X obj 44 159 *~ 0.1;
#X obj 44 295 dac~;
#X obj 44 229 hip~ 1;
#X obj 44 258 clip~ -1 1;
#X obj 115 229 hip~ 1;
#X obj 115 258 clip~ -1 1;
#X obj 44 131 *~;
#X floatatom 44 94 5 0 0 0 - - -;
#X obj 87 93 osc~ 220;
#X floatatom 44 46 5 0 0 0 - - -;
#X obj 238 156 *~ 0.1;
#X obj 238 292 dac~;
#X obj 238 226 hip~ 1;
#X obj 238 255 clip~ -1 1;
#X obj 309 226 hip~ 1;
#X obj 309 255 clip~ -1 1;
#X obj 238 128 *~;
#X floatatom 238 91 5 0 0 0 - - -;
#X obj 281 90 osc~ 220;
#X floatatom 238 43 5 0 0 0 - - -;
#X obj 238 18 r LON;
#X connect 0 0 10 0;
#X connect 1 0 3 0;
#X connect 1 0 5 0;
#X connect 3 0 4 0;
#X connect 4 0 2 0;
#X connect 5 0 6 0;
#X connect 6 0 2 1;
#X connect 7 0 1 0;
#X connect 8 0 7 0;
#X connect 9 0 7 1;
#X connect 10 0 8 0;
#X connect 11 0 13 0;
#X connect 11 0 15 0;
#X connect 13 0 14 0;
#X connect 14 0 12 0;
#X connect 15 0 16 0;
#X connect 16 0 12 1;
#X connect 17 0 11 0;
#X connect 18 0 17 0;
#X connect 19 0 17 1;
#X connect 20 0 18 0;
#X connect 21 0 20 0;
