#N canvas 600 129 522 402 10;
#X obj 167 136 osc~ 220;
#X obj 111 207 *~ 0.1;
#X obj 111 343 dac~;
#X obj 111 277 hip~ 1;
#X obj 111 306 clip~ -1 1;
#X obj 182 277 hip~ 1;
#X obj 182 306 clip~ -1 1;
#X obj 111 179 *~;
#X floatatom 167 110 5 0 0 0 - - -;
#X obj 111 136 vline~;
#X obj 167 80 r MOUSEY;
#X floatatom 111 84 5 0 0 0 - - -;
#X msg 111 109 \$1 1000;
#X obj 111 54 r MOUSEX;
#X floatatom 344 78 5 0 0 0 - - -;
#X obj 344 48 r MOUSEY;
#X floatatom 257 77 5 0 0 0 - - -;
#X obj 257 47 r MOUSEX;
#X obj 257 105 list append 1 2;
#X obj 314 146 print XY;
#X obj 257 146 send XY;
#X connect 0 0 7 1;
#X connect 1 0 3 0;
#X connect 1 0 5 0;
#X connect 3 0 4 0;
#X connect 4 0 2 0;
#X connect 5 0 6 0;
#X connect 6 0 2 1;
#X connect 7 0 1 0;
#X connect 8 0 0 0;
#X connect 9 0 7 0;
#X connect 10 0 8 0;
#X connect 11 0 12 0;
#X connect 12 0 9 0;
#X connect 13 0 11 0;
#X connect 14 0 18 1;
#X connect 15 0 14 0;
#X connect 16 0 18 0;
#X connect 17 0 16 0;
#X connect 18 0 20 0;
