#N canvas 600 129 522 402 10;
#X obj 111 207 *~ 0.1;
#X obj 111 343 dac~;
#X obj 111 277 hip~ 1;
#X obj 111 306 clip~ -1 1;
#X obj 182 277 hip~ 1;
#X obj 182 306 clip~ -1 1;
#X obj 111 179 *~;
#X obj 111 136 vline~;
#X floatatom 111 84 5 0 0 0 - - -;
#X msg 111 109 \$1 1000;
#X floatatom 344 78 5 0 0 0 - - -;
#X obj 344 48 r MOUSEY;
#X floatatom 257 77 5 0 0 0 - - -;
#X obj 257 47 r MOUSEX;
#X obj 257 105 list append 1 2;
#X obj 314 146 print XY;
#X obj 257 146 send XY;
#X obj 111 54 r MX;
#X obj 167 39 r MY;
#X obj 167 136 osc~ 220;
#X floatatom 167 112 5 0 0 0 - - -;
#X obj 167 86 mtof;
#X floatatom 167 65 5 0 0 0 - - -;
#X connect 0 0 2 0;
#X connect 0 0 4 0;
#X connect 2 0 3 0;
#X connect 3 0 1 0;
#X connect 4 0 5 0;
#X connect 5 0 1 1;
#X connect 6 0 0 0;
#X connect 7 0 6 0;
#X connect 8 0 9 0;
#X connect 9 0 7 0;
#X connect 10 0 14 1;
#X connect 11 0 10 0;
#X connect 12 0 14 0;
#X connect 13 0 12 0;
#X connect 14 0 16 0;
#X connect 17 0 8 0;
#X connect 18 0 22 0;
#X connect 19 0 6 1;
#X connect 20 0 19 0;
#X connect 21 0 20 0;
#X connect 22 0 21 0;
