#N canvas 21 481 499 561 10;
#X obj 19 -373 cnv 15 100 100 empty empty empty 20 12 0 14 -228856
-66577 0;
#N canvas 565 22 450 300 receive 1;
#X obj 23 41 cnv 15 400 200 empty empty empty 20 12 0 14 -162280 -66577
0;
#X obj 66 57 r LAT;
#X floatatom 66 82 5 0 0 0 - - -;
#X floatatom 170 82 5 0 0 0 - - -;
#X obj 170 57 r LON;
#X msg 107 57 45.4287;
#X msg 210 57 -75.728;
#X obj 170 109 s parseLon;
#X obj 66 109 s parseLat;
#X connect 1 0 2 0;
#X connect 2 0 8 0;
#X connect 3 0 7 0;
#X connect 4 0 3 0;
#X restore 38 -330 pd receive;
#X obj 19 -258 cnv 15 100 100 empty empty empty 20 12 0 14 -228856
-66577 0;
#X obj 136 -373 cnv 15 100 100 empty empty empty 20 12 0 14 -228856
-66577 0;
#N canvas 1071 22 450 300 parse 1;
#X obj 21 44 cnv 15 400 200 empty empty empty 20 12 0 14 -162280 -66577
0;
#X obj 60 61 r parseLat;
#X obj 164 61 r parseLon;
#X floatatom 164 89 5 0 0 0 - - -;
#X floatatom 60 86 5 0 0 0 - - -;
#N canvas 567 726 450 300 trimInt 0;
#X obj 174 122 t f f;
#X obj 201 159 i;
#X obj 174 183 -;
#X obj 174 98 inlet;
#X obj 174 210 outlet;
#X connect 0 0 2 0;
#X connect 0 1 1 0;
#X connect 1 0 2 1;
#X connect 2 0 4 0;
#X connect 3 0 0 0;
#X restore 164 112 pd trimInt;
#X floatatom 164 139 5 0 0 0 - - -;
#N canvas 567 726 450 300 trimInt 0;
#X obj 174 122 t f f;
#X obj 201 159 i;
#X obj 174 183 -;
#X obj 174 98 inlet;
#X obj 174 210 outlet;
#X connect 0 0 2 0;
#X connect 0 1 1 0;
#X connect 1 0 2 1;
#X connect 2 0 4 0;
#X connect 3 0 0 0;
#X restore 60 107 pd trimInt;
#X floatatom 60 134 5 0 0 0 - - -;
#X connect 1 0 4 0;
#X connect 2 0 3 0;
#X connect 3 0 5 0;
#X connect 4 0 7 0;
#X connect 5 0 6 0;
#X connect 7 0 8 0;
#X restore 155 -330 pd parse;
#X obj 135 -258 cnv 15 100 100 empty empty empty 20 12 0 14 -228856
-66577 0;
#N canvas 1073 361 450 300 output 1;
#X obj 21 44 cnv 15 400 200 empty empty empty 20 12 0 14 -162280 -66577
0;
#X obj 71 95 *~ 0.1;
#X obj 71 198 dac~;
#X obj 71 132 hip~ 1;
#X obj 71 161 clip~ -1 1;
#X obj 142 132 hip~ 1;
#X obj 142 161 clip~ -1 1;
#X obj 71 65 r~ oscLat;
#X obj 233 95 *~ 0.1;
#X obj 233 198 dac~;
#X obj 233 132 hip~ 1;
#X obj 233 161 clip~ -1 1;
#X obj 304 132 hip~ 1;
#X obj 304 161 clip~ -1 1;
#X obj 233 65 r~ oscLon;
#X connect 1 0 3 0;
#X connect 1 0 5 0;
#X connect 3 0 4 0;
#X connect 4 0 2 0;
#X connect 5 0 6 0;
#X connect 6 0 2 1;
#X connect 7 0 1 0;
#X connect 8 0 10 0;
#X connect 8 0 12 0;
#X connect 10 0 11 0;
#X connect 11 0 9 0;
#X connect 12 0 13 0;
#X connect 13 0 9 1;
#X connect 14 0 8 0;
#X restore 154 -215 pd output;
#N canvas 565 367 450 300 sonicize 1;
#X obj 21 44 cnv 15 400 200 empty empty empty 20 12 0 14 -162280 -66577
0;
#X obj 71 61 r LAT;
#X obj 71 171 *~;
#X floatatom 71 134 5 0 0 0 - - -;
#X obj 114 133 osc~ 220;
#X floatatom 71 86 5 0 0 0 - - -;
#X obj 265 168 *~;
#X floatatom 265 131 5 0 0 0 - - -;
#X obj 308 130 osc~ 220;
#X floatatom 265 83 5 0 0 0 - - -;
#X obj 265 58 r LON;
#X msg 112 61 45.4287;
#X msg 305 58 -75.728;
#X obj 71 200 s~ oscLat;
#X obj 265 200 s~ oscLon;
#X connect 1 0 5 0;
#X connect 2 0 13 0;
#X connect 3 0 2 0;
#X connect 4 0 2 1;
#X connect 6 0 14 0;
#X connect 7 0 6 0;
#X connect 8 0 6 1;
#X connect 10 0 9 0;
#X restore 38 -215 pd sonicize;
#X obj 252 -372 cnv 15 150 100 empty empty empty 20 12 0 14 -203904
-66577 0;
#X text 262 -363 SoniCity;
#X text 261 -342 Jesse Scott;
#X text 262 -297 libpd | Pd Vanilla;
#X text 262 -320 June 2013;
