#N canvas 1078 22 587 724 10;
#N canvas 0 22 450 300 (subpatch) 0;
#X array Synth1 300 float 1;
#A 0 0 0 0 0 0 0 0 0 0 0 0 0 0 0 0 0 0 0 0 0 0 0 0 0 0 0 0 0 0 0 0
0 0 0 0 0 0 0 0 0 0 0 0 0 0 0 0 0 0 0 0 0 0 0 0 0 0 0 0 0 0 0 0 0 0
0 0 0 0 0 0 0 0 0 0 0 0 0 0 0 0 0 0 0 0 0 0 0 0 0 0 0 0 0 0 0 0 0 0
0 0 0 0 0 0 0 0 0 0 0 0 0 0 0 0 0 0 0 0 0 0 0 0 0 0 0 0 0 0 0 0 0 0
0 0 0 0 0 0 0 0 0 0 0 0 0 0 0 0 0 0 0 0 0 0 0 0 0 0 0 0 0 0 0 0 0 0
0 0 0 0 0 0 0 0 0 0 0 0 0 0 0 0 0 0 0 0 0 0 0 0 0 0 0 0 0 0 0 0 0 0
0 0 0 0 0 0 0 0 0 0 0 0 0 0 0 0 0 0 0 0 0 0 0 0 0 0 0 0 0 0 0 0 0 0
0 0 0 0 0 0 0 0 0 0 0 0 0 0 0 0 0 0 0 0 0 0 0 0 0 0 0 0 0 0 0 0 0 0
0 0 0 0 0 0 0 0 0 0 0 0 0 0 0 0 0 0 0 0 0 0 0 0 0 0 0 0 0 0 0;
#X coords 0 -1 299 1 300 200 1;
#X restore 242 -411 graph;
#N canvas 0 22 450 300 (subpatch) 0;
#X array Synth3 300 float 1;
#A 0 0 0 0 0 0 0 0 0 0 0 0 0 0 0 0 0 0 0 0 0 0 0 0 0 0 0 0 0 0 0 0
0 0 0 0 0 0 0 0 0 0 0 0 0 0 0 0 0 0 0 0 0 0 0 0 0 0 0 0 0 0 0 0 0 0
0 0 0 0 0 0 0 0 0 0 0 0 0 0 0 0 0 0 0 0 0 0 0 0 0 0 0 0 0 0 0 0 0 0
0 0 0 0 0 0 0 0 0 0 0 0 0 0 0 0 0 0 0 0 0 0 0 0 0 0 0 0 0 0 0 0 0 0
0 0 0 0 0 0 0 0 0 0 0 0 0 0 0 0 0 0 0 0 0 0 0 0 0 0 0 0 0 0 0 0 0 0
0 0 0 0 0 0 0 0 0 0 0 0 0 0 0 0 0 0 0 0 0 0 0 0 0 0 0 0 0 0 0 0 0 0
0 0 0 0 0 0 0 0 0 0 0 0 0 0 0 0 0 0 0 0 0 0 0 0 0 0 0 0 0 0 0 0 0 0
0 0 0 0 0 0 0 0 0 0 0 0 0 0 0 0 0 0 0 0 0 0 0 0 0 0 0 0 0 0 0 0 0 0
0 0 0 0 0 0 0 0 0 0 0 0 0 0 0 0 0 0 0 0 0 0 0 0 0 0 0 0 0 0 0;
#X coords 0 -1 299 1 300 100 1;
#X restore 242 29 graph;
#X obj 16 -534 cnv 15 100 100 empty empty empty 20 12 0 14 -162280
-66577 0;
#X msg 39 -490 \; pd dsp \$1;
#X obj 39 -513 tgl 20 0 empty empty empty 25 8 0 8 -258699 -1 -1 0
1;
#X obj 15 -148 cnv 15 212 155 empty empty empty 20 12 0 14 -162280
-66577 0;
#X obj 68 -18 dac~;
#X obj 132 -90 vsl 15 45 0 1 0 0 empty empty empty 0 -9 0 10 -228856
-1 -1 0 1;
#X obj 27 -92 *~ \$1;
#X obj 27 -123 r~ oscLat;
#X obj 89 -123 r~ oscLon;
#X obj 129 -535 cnv 15 100 100 empty empty empty 20 12 0 14 -228856
-66577 0;
#X obj 239 -535 cnv 15 100 100 empty empty empty 20 12 0 14 -228856
-66577 0;
#N canvas 1117 540 480 273 runme 0;
#X msg 221 141 bang;
#X obj 278 165 + 1;
#X obj 221 166 float;
#X msg 221 56 bang;
#X msg 257 56 stop;
#X msg 277 140 0;
#X obj 183 141 s met;
#X obj 278 206 send currentLine;
#X obj 164 205 send newLine;
#X obj 221 26 inlet;
#X obj 257 26 inlet;
#X text 309 141 set to beginning;
#X obj 184 112 s GO;
#X obj 297 55 r TIM;
#X obj 297 82 * 1000;
#X obj 221 114 metro \$1;
#X floatatom 297 107 5 0 0 0 - - -;
#X obj 298 26 s STOP;
#X msg 344 82 1000;
#X connect 0 0 2 0;
#X connect 0 0 8 0;
#X connect 1 0 2 1;
#X connect 1 0 7 0;
#X connect 2 0 1 0;
#X connect 3 0 12 0;
#X connect 3 0 15 0;
#X connect 4 0 15 0;
#X connect 5 0 2 1;
#X connect 9 0 3 0;
#X connect 10 0 4 0;
#X connect 10 0 17 0;
#X connect 13 0 14 0;
#X connect 14 0 16 0;
#X connect 15 0 0 0;
#X connect 15 0 6 0;
#X connect 18 0 15 1;
#X restore 253 -485 pd runme;
#X msg 253 -511 bang;
#X msg 298 -511 stop;
#X obj 129 -425 cnv 15 100 100 empty empty empty 20 12 0 14 -228856
-66577 0;
#N canvas 461 348 974 346 parsing 0;
#X floatatom 199 172 9 0 0 0 - - -;
#X symbolatom 91 171 10 0 0 0 - - -;
#X msg 91 148 symbol \$1;
#X msg 199 149 \$3;
#X floatatom 298 173 9 0 0 0 - - -;
#X msg 298 150 \$5;
#X symbolatom 359 173 10 0 0 0 - - -;
#X msg 359 150 symbol \$6;
#X symbolatom 425 173 10 0 0 0 - - -;
#X msg 425 150 symbol \$7;
#X floatatom 497 172 9 0 0 0 - - -;
#X msg 497 149 \$8;
#X symbolatom 560 172 10 0 0 0 - - -;
#X msg 560 149 symbol \$9;
#X floatatom 628 172 9 0 0 0 - - -;
#X symbolatom 691 172 10 0 0 0 - - -;
#X msg 628 149 \$10;
#X msg 691 149 symbol \$11;
#X symbolatom 764 171 10 0 0 0 - - -;
#X floatatom 842 170 9 0 0 0 - - -;
#X msg 842 147 \$13;
#X obj 425 56 inlet;
#X obj 497 212 s ALT;
#X obj 842 210 s SPD;
#X floatatom 199 253 5 0 0 0 - - -;
#N canvas 1177 742 450 300 trimInt 0;
#X obj 174 122 t f f;
#X obj 201 159 i;
#X obj 174 183 -;
#X obj 174 98 inlet;
#X obj 174 210 outlet;
#X connect 0 0 2 0;
#X connect 0 1 1 0;
#X connect 1 0 2 1;
#X connect 2 0 4 0;
#X connect 3 0 0 0;
#X restore 199 228 pd trimInt;
#X floatatom 298 255 5 0 0 0 - - -;
#N canvas 61 812 450 300 trimInt 0;
#X obj 174 122 t f f;
#X obj 201 159 i;
#X obj 174 183 -;
#X obj 174 98 inlet;
#X obj 174 210 outlet;
#X connect 0 0 2 0;
#X connect 0 1 1 0;
#X connect 1 0 2 1;
#X connect 2 0 4 0;
#X connect 3 0 0 0;
#X restore 298 230 pd trimInt;
#X msg 764 148 symbol \$12;
#X obj 628 211 s DIS;
#N canvas 458 802 450 300 getLen 0;
#X obj 152 34 inlet;
#X obj 152 71 symbol2list :;
#X obj 152 102 unpack f f f;
#X floatatom 152 137 5 0 0 0 - - -;
#X floatatom 186 155 5 0 0 0 - - -;
#X obj 221 143 outlet;
#X connect 0 0 1 0;
#X connect 1 0 2 0;
#X connect 2 0 3 0;
#X connect 2 1 4 0;
#X connect 2 2 5 0;
#X restore 764 210 pd getLen;
#X floatatom 764 238 5 0 0 0 - - -;
#X obj 764 264 s TIM;
#X obj 640 38 inlet;
#N canvas 1164 781 498 335 parseNext 0;
#X obj 173 46 inlet;
#X msg 89 108 \$2;
#X msg 206 108 \$4;
#X floatatom 89 133 5 0 0 0 - - -;
#X floatatom 206 132 5 0 0 0 - - -;
#X floatatom 147 133 5 0 0 0 - - -;
#X floatatom 263 132 5 0 0 0 - - -;
#X msg 147 108 \$3;
#X msg 263 108 \$5;
#X obj 89 155 s LATh_n;
#X obj 147 155 s LATm_n;
#X obj 206 155 s LONh_n;
#X obj 263 155 s LONm_n;
#X connect 0 0 1 0;
#X connect 0 0 2 0;
#X connect 0 0 7 0;
#X connect 0 0 8 0;
#X connect 1 0 3 0;
#X connect 2 0 4 0;
#X connect 3 0 9 0;
#X connect 4 0 11 0;
#X connect 5 0 10 0;
#X connect 6 0 12 0;
#X connect 7 0 5 0;
#X connect 8 0 6 0;
#X restore 640 64 pd parseNext;
#X msg 160 148 \$2;
#X msg 258 149 \$4;
#X floatatom 160 173 5 0 0 0 - - -;
#X floatatom 258 172 5 0 0 0 - - -;
#X obj 211 208 s LATm;
#X obj 308 210 s LONm;
#X obj 298 278 s LONs;
#X obj 199 277 s LATs;
#X obj 258 198 s LONh;
#X obj 160 197 s LATh;
#X connect 0 0 25 0;
#X connect 0 0 39 0;
#X connect 2 0 1 0;
#X connect 3 0 0 0;
#X connect 4 0 27 0;
#X connect 4 0 40 0;
#X connect 5 0 4 0;
#X connect 7 0 6 0;
#X connect 9 0 8 0;
#X connect 10 0 22 0;
#X connect 11 0 10 0;
#X connect 13 0 12 0;
#X connect 14 0 29 0;
#X connect 16 0 14 0;
#X connect 17 0 15 0;
#X connect 18 0 30 0;
#X connect 19 0 23 0;
#X connect 20 0 19 0;
#X connect 21 0 2 0;
#X connect 21 0 35 0;
#X connect 21 0 3 0;
#X connect 21 0 36 0;
#X connect 21 0 5 0;
#X connect 21 0 7 0;
#X connect 21 0 9 0;
#X connect 21 0 11 0;
#X connect 21 0 13 0;
#X connect 21 0 16 0;
#X connect 21 0 17 0;
#X connect 21 0 28 0;
#X connect 21 0 20 0;
#X connect 24 0 42 0;
#X connect 25 0 24 0;
#X connect 26 0 41 0;
#X connect 27 0 26 0;
#X connect 28 0 18 0;
#X connect 30 0 31 0;
#X connect 31 0 32 0;
#X connect 33 0 34 0;
#X connect 35 0 37 0;
#X connect 36 0 38 0;
#X connect 37 0 44 0;
#X connect 38 0 43 0;
#X restore 150 -383 pd parsing;
#X obj 128 -313 cnv 15 100 100 empty empty empty 20 12 0 14 -228856
-66577 0;
#N canvas 409 22 1248 848 sonic 0;
#X obj 19 13 cnv 15 500 60 empty empty empty 20 12 0 14 -233017 -66577
0;
#X floatatom 23 49 5 0 0 0 - - -;
#X obj 536 283 cnv 15 100 70 empty empty empty 20 12 0 14 -233017 -66577
0;
#X obj 547 333 *~;
#X obj 885 277 cnv 15 100 70 empty empty empty 20 12 0 14 -233017 -66577
0;
#X obj 896 327 *~;
#X obj 886 10 cnv 15 100 100 empty empty empty 20 12 0 14 -233017 -66577
0;
#X obj 538 13 cnv 15 100 100 empty empty empty 20 12 0 14 -233017 -66577
0;
#X obj 18 220 cnv 15 175 120 empty empty empty 20 12 0 14 -233017 -66577
0;
#X obj 26 244 r~ oscLon;
#X obj 132 277 metro 100;
#X msg 132 255 bang;
#X obj 19 89 cnv 15 175 120 empty empty empty 20 12 0 14 -233017 -66577
0;
#X obj 28 113 r~ oscLat;
#X obj 28 180 tabwrite~ Synth1;
#X msg 120 126 bang;
#X obj 120 149 metro 100;
#X obj 120 103 r GO;
#X obj 132 234 r GO;
#N canvas 1190 755 450 300 SecRem 0;
#X floatatom 100 100 5 0 0 0 - - -;
#X obj 85 146 -;
#X floatatom 85 172 5 0 0 0 - - -;
#X msg 62 123 1;
#X obj 62 100 r met;
#X floatatom 220 104 5 0 0 0 - - -;
#X obj 205 150 -;
#X floatatom 205 176 5 0 0 0 - - -;
#X msg 182 127 1;
#X obj 182 104 r met;
#X obj 85 204 s LATrem;
#X obj 205 205 s LONrem;
#X obj 100 69 r LATs;
#X obj 220 67 r LONs;
#X connect 0 0 1 1;
#X connect 1 0 2 0;
#X connect 2 0 10 0;
#X connect 3 0 1 0;
#X connect 4 0 3 0;
#X connect 5 0 6 1;
#X connect 6 0 7 0;
#X connect 7 0 11 0;
#X connect 8 0 6 0;
#X connect 9 0 8 0;
#X connect 12 0 0 0;
#X connect 13 0 5 0;
#X restore 27 496 pd SecRem;
#X text 25 476 TOOLS;
#X obj 852 603 cnv 15 100 70 empty empty empty 20 12 0 14 -233017 -66577
0;
#X obj 868 652 crossFader;
#X obj 871 630 hsl 45 15 0 1 0 0 empty empty empty -2 -8 0 10 -262144
-1 -1 0 1;
#X obj 502 601 cnv 15 100 70 empty empty empty 20 12 0 14 -233017 -66577
0;
#X obj 519 651 crossFader;
#X obj 522 630 hsl 45 15 0 1 0 0 empty empty empty -2 -8 0 10 -262144
-1 -1 0 1;
#X obj 852 690 cnv 15 250 80 empty empty empty 20 12 0 14 -233017 -66577
0;
#X text 877 673 REVERB;
#X obj 502 689 cnv 15 250 80 empty empty empty 20 12 0 14 -233017 -66577
0;
#X text 527 672 REVERB;
#X obj 138 804 cnv 15 800 25 empty empty empty 20 12 0 14 -233017 -66577
0;
#X obj 519 806 s~ oscLat;
#X obj 868 807 s~ oscLon;
#X text 27 94 WRITE TABLE #1;
#X text 26 224 WRITE TABLE #2;
#X obj 554 133 cnv 15 140 140 empty empty empty 20 12 0 14 -233017
-66577 0;
#X obj 618 159 r TIM;
#X obj 618 186 * 1000;
#X floatatom 630 237 8 0 0 0 - - -;
#X obj 562 211 pack f f;
#X obj 562 237 line \$1 \$2;
#X obj 903 127 cnv 15 140 140 empty empty empty 20 12 0 14 -233017
-66577 0;
#X obj 969 150 r TIM;
#X obj 969 177 * 1000;
#X floatatom 979 231 8 0 0 0 - - -;
#X obj 911 205 pack f f;
#X obj 911 231 line \$1 \$2;
#X obj 26 310 tabwrite~ Synth2;
#X floatatom 579 68 8 0 0 0 - - -;
#X obj 562 43 r ALT;
#X obj 547 68 +;
#X obj 562 187 +;
#X obj 577 162 r ALT;
#X floatatom 928 65 8 0 0 0 - - -;
#X obj 911 40 r ALT;
#X obj 896 65 +;
#X obj 911 176 +;
#X obj 926 153 r ALT;
#X obj 215 90 cnv 15 100 100 empty empty empty 20 12 0 14 -233017 -66577
0;
#X msg 245 390 open \$1 \, 1;
#X obj 253 100 r TIM;
#X obj 268 121 r DIS;
#X obj 253 144 /;
#X floatatom 253 169 8 0 0 0 - - -;
#X obj 226 254 bng 15 250 50 0 empty empty empty 17 7 0 10 -262144
-1 -1;
#X obj 226 226 metro;
#X obj 226 275 tgl 15 0 empty empty empty 17 7 0 10 -262144 -1 -1 0
1;
#X obj 226 298 sel 1 0;
#X msg 226 330 read sounds/Snaredrum.wav;
#X msg 245 359 read sounds/blunt1.wav;
#X obj 245 808 s~ drums;
#X obj 245 416 readsf~ 2;
#X msg 219 202 bang;
#X obj 219 179 r GO;
#X obj 18 346 cnv 15 175 120 empty empty empty 20 12 0 14 -233017 -66577
0;
#X obj 118 403 metro 100;
#X msg 118 381 bang;
#X obj 118 360 r GO;
#X text 26 350 WRITE TABLE #3;
#X obj 26 370 r~ drums;
#X obj 26 436 tabwrite~ Synth3;
#X obj 519 783 clip~ -1 1;
#X obj 868 783 clip~ -1 1;
#X floatatom 66 49 5 0 0 0 - - -;
#X obj 66 24 r LATm;
#X floatatom 109 49 5 0 0 0 - - -;
#X obj 109 24 r LATs;
#X obj 23 24 r LATh;
#X floatatom 196 49 5 0 0 0 - - -;
#X floatatom 239 49 5 0 0 0 - - -;
#X floatatom 282 49 5 0 0 0 - - -;
#X obj 282 24 r LONs;
#X obj 239 24 r LONm;
#X obj 196 24 r LONh;
#X floatatom 368 50 5 0 0 0 - - -;
#X floatatom 406 50 5 0 0 0 - - -;
#X floatatom 444 50 5 0 0 0 - - -;
#X floatatom 482 50 5 0 0 0 - - -;
#X obj 368 25 r ALT;
#X obj 406 25 r SPD;
#X obj 444 25 r TIM;
#X obj 482 25 r DIS;
#X obj 547 21 r LATh;
#X obj 896 17 r LONh;
#X obj 519 576 r LATs;
#X obj 868 581 r LONs;
#X obj 911 304 osc~ 2;
#X obj 562 310 osc~ 2;
#X obj 562 142 r LATh_n;
#X obj 911 132 r LONh_n;
#X obj 1005 278 cnv 15 100 100 empty empty empty 20 12 0 14 -233017
-66577 0;
#X floatatom 1047 333 8 0 0 0 - - -;
#X obj 1030 308 r ALT;
#X obj 1015 333 +;
#X obj 1015 355 osc~;
#X obj 1015 285 r LONm;
#X obj 1022 395 cnv 15 140 140 empty empty empty 20 12 0 14 -233017
-66577 0;
#X obj 1116 416 r TIM;
#X obj 1116 443 * 1000;
#X floatatom 1062 444 8 0 0 0 - - -;
#X floatatom 1098 499 8 0 0 0 - - -;
#X obj 1030 473 pack f f;
#X obj 1030 499 line \$1 \$2;
#X obj 1030 444 +;
#X obj 1045 421 r ALT;
#X obj 1015 564 *~;
#X obj 1030 400 r LONm_n;
#X obj 1030 541 osc~ 1;
#X obj 643 284 cnv 15 100 100 empty empty empty 20 12 0 14 -233017
-66577 0;
#X floatatom 684 339 8 0 0 0 - - -;
#X obj 667 314 r ALT;
#X obj 652 339 +;
#X obj 652 361 osc~;
#X obj 652 292 r LATm;
#X obj 659 396 cnv 15 140 140 empty empty empty 20 12 0 14 -233017
-66577 0;
#X obj 753 422 r TIM;
#X obj 753 449 * 1000;
#X floatatom 735 500 8 0 0 0 - - -;
#X obj 667 474 pack f f;
#X obj 667 500 line \$1 \$2;
#X floatatom 694 450 8 0 0 0 - - -;
#X obj 667 450 +;
#X obj 682 425 r ALT;
#X obj 667 405 r LATh_n;
#X obj 652 579 *~;
#X obj 667 556 osc~ 1;
#X obj 245 782 clip~ -1 1;
#X obj 896 87 osc~ 3;
#X obj 547 90 osc~ 3;
#X obj 868 601 * 0.33;
#X obj 519 598 * 0.33;
#X floatatom 287 246 8 0 0 0 - - -;
#X obj 253 202 * 1250;
#X connect 3 0 25 1;
#X connect 5 0 22 1;
#X connect 9 0 48 0;
#X connect 10 0 48 0;
#X connect 11 0 10 0;
#X connect 13 0 14 0;
#X connect 15 0 16 0;
#X connect 16 0 14 0;
#X connect 17 0 15 0;
#X connect 18 0 11 0;
#X connect 22 0 83 0;
#X connect 22 1 83 0;
#X connect 23 0 22 0;
#X connect 25 0 82 0;
#X connect 25 1 82 0;
#X connect 26 0 25 0;
#X connect 37 0 38 0;
#X connect 38 0 40 1;
#X connect 40 0 41 0;
#X connect 41 0 39 0;
#X connect 41 0 108 0;
#X connect 43 0 44 0;
#X connect 44 0 46 1;
#X connect 46 0 47 0;
#X connect 47 0 45 0;
#X connect 47 0 107 0;
#X connect 50 0 51 1;
#X connect 51 0 49 0;
#X connect 51 0 149 0;
#X connect 52 0 40 0;
#X connect 53 0 52 1;
#X connect 55 0 56 1;
#X connect 56 0 54 0;
#X connect 56 0 148 0;
#X connect 57 0 46 0;
#X connect 58 0 57 1;
#X connect 60 0 72 0;
#X connect 61 0 63 0;
#X connect 62 0 63 1;
#X connect 63 0 64 0;
#X connect 64 0 153 0;
#X connect 65 0 67 0;
#X connect 67 0 68 0;
#X connect 68 0 69 0;
#X connect 68 1 70 0;
#X connect 70 0 60 0;
#X connect 72 0 147 0;
#X connect 72 1 147 0;
#X connect 73 0 66 0;
#X connect 74 0 73 0;
#X connect 76 0 81 0;
#X connect 77 0 76 0;
#X connect 78 0 77 0;
#X connect 80 0 81 0;
#X connect 82 0 32 0;
#X connect 83 0 33 0;
#X connect 85 0 84 0;
#X connect 87 0 86 0;
#X connect 88 0 1 0;
#X connect 92 0 91 0;
#X connect 93 0 90 0;
#X connect 94 0 89 0;
#X connect 99 0 95 0;
#X connect 100 0 96 0;
#X connect 101 0 97 0;
#X connect 102 0 98 0;
#X connect 103 0 51 0;
#X connect 104 0 56 0;
#X connect 105 0 151 0;
#X connect 106 0 150 0;
#X connect 107 0 5 1;
#X connect 108 0 3 1;
#X connect 109 0 52 0;
#X connect 110 0 57 0;
#X connect 113 0 114 1;
#X connect 114 0 112 0;
#X connect 114 0 115 0;
#X connect 115 0 126 0;
#X connect 116 0 114 0;
#X connect 118 0 119 0;
#X connect 119 0 122 1;
#X connect 122 0 123 0;
#X connect 123 0 121 0;
#X connect 123 0 128 0;
#X connect 124 0 120 0;
#X connect 124 0 122 0;
#X connect 125 0 124 1;
#X connect 126 0 22 2;
#X connect 127 0 124 0;
#X connect 128 0 126 1;
#X connect 131 0 132 1;
#X connect 132 0 130 0;
#X connect 132 0 133 0;
#X connect 133 0 145 0;
#X connect 134 0 132 0;
#X connect 136 0 137 0;
#X connect 137 0 139 1;
#X connect 139 0 140 0;
#X connect 140 0 138 0;
#X connect 140 0 146 0;
#X connect 142 0 139 0;
#X connect 142 0 141 0;
#X connect 143 0 142 1;
#X connect 144 0 142 0;
#X connect 145 0 25 2;
#X connect 146 0 145 1;
#X connect 147 0 71 0;
#X connect 148 0 5 0;
#X connect 149 0 3 0;
#X connect 150 0 23 0;
#X connect 151 0 26 0;
#X connect 153 0 66 1;
#X connect 153 0 152 0;
#X restore 150 -273 pd sonic;
#X obj 89 -92 *~ \$1;
#X obj 348 -534 cnv 15 150 100 empty empty empty 20 12 0 14 -203904
-66577 0;
#X text 357 -504 the memelab;
#X text 358 -482 Dec 2010;
#X text 358 -459 Pd 0.42.5 OSX Intel;
#X text 358 -525 SoniCity;
#X obj 16 -313 cnv 15 100 100 empty empty empty 20 12 0 14 -228856
-66577 0;
#X obj 16 -424 cnv 15 100 100 empty empty empty 20 12 0 14 -228856
-66577 0;
#X floatatom 29 -391 5 0 0 0 - - -;
#X obj 29 -414 r currentLine;
#X floatatom 30 -344 5 0 0 0 - - -;
#X obj 30 -367 r TIM;
#X obj 67 -90 vsl 15 45 0 1 0 0 empty empty empty 0 -9 0 10 -228856
-1 -1 0 1;
#N canvas 1268 778 574 374 write 0;
#X msg 173 16 start;
#X msg 216 16 stop;
#X obj 252 162 writesf~ 2;
#X obj 252 42 r~ oscLat;
#X obj 340 84 r~ oscLon;
#X obj 34 -51 r GO;
#X obj 216 -17 r STOP;
#X obj 257 105 r~ drums;
#X msg 34 -19 bang;
#X obj 76 -19 delay 100;
#X msg 34 16 open -bytes 2 foo.wav;
#X obj 216 39 bng 15 250 50 0 empty empty empty 17 7 0 10 -262144 -1
-1;
#X obj 34 39 bng 15 250 50 0 empty empty empty 17 7 0 10 -262144 -1
-1;
#X obj 173 39 bng 15 250 50 0 empty empty empty 17 7 0 10 -262144 -1
-1;
#X obj 254 16 print FLUSHING...;
#X obj 57 37 print START REC...;
#X obj 340 114 tanh~;
#X obj 257 128 tanh~;
#X obj 252 64 tanh~;
#X connect 0 0 2 0;
#X connect 0 0 13 0;
#X connect 1 0 2 0;
#X connect 1 0 11 0;
#X connect 1 0 14 0;
#X connect 3 0 18 0;
#X connect 4 0 16 0;
#X connect 7 0 17 0;
#X connect 8 0 10 0;
#X connect 8 0 9 0;
#X connect 9 0 0 0;
#X connect 10 0 2 0;
#X connect 10 0 12 0;
#X connect 13 0 15 0;
#X connect 16 0 2 1;
#X connect 17 0 2 0;
#X connect 17 0 2 1;
#X connect 18 0 2 0;
#X restore 31 -273 pd write me;
#N canvas 63 464 652 544 read 0;
#X floatatom 197 414 5 0 0 0 - - -;
#X obj 197 391 receive currentLine;
#X obj 58 472 outlet;
#X obj 134 471 outlet;
#N canvas 548 500 485 430 thisline 0;
#X obj 238 379 outlet;
#X obj 238 258 msgfile;
#X obj 277 284 print done;
#X msg 281 212 this;
#X msg 273 166 goto \$1;
#X obj 281 189 receive newLine;
#N canvas 0 22 450 300 otherMessages 0;
#X msg 63 112 bang;
#X msg 63 155 next;
#X msg 63 133 prev;
#X msg 63 177 flush;
#X msg 63 68 rewind;
#X msg 63 90 end;
#X msg 63 25 where;
#X msg 63 46 clear;
#X obj 128 233 outlet;
#X connect 0 0 8 0;
#X connect 1 0 8 0;
#X connect 2 0 8 0;
#X connect 3 0 8 0;
#X connect 4 0 8 0;
#X connect 5 0 8 0;
#X connect 6 0 8 0;
#X connect 7 0 8 0;
#X restore 115 226 pd otherMessages;
#X obj 344 284 s STOP;
#X obj 238 83 inlet;
#X obj 273 128 inlet;
#X text 240 65 FILE;
#X text 273 108 LINE;
#X obj 249 307 print THIS;
#X connect 1 0 0 0;
#X connect 1 0 12 0;
#X connect 1 1 7 0;
#X connect 3 0 1 0;
#X connect 4 0 1 0;
#X connect 5 0 3 0;
#X connect 6 0 1 0;
#X connect 8 0 1 0;
#X connect 9 0 4 0;
#X restore 58 444 pd thisline;
#N canvas 621 545 559 448 nextline 0;
#X obj 256 333 outlet;
#X obj 256 272 msgfile;
#X obj 256 206 + 1;
#X msg 256 229 goto \$1;
#X msg 314 228 this;
#X obj 314 205 receive newLine;
#X obj 174 172 inlet;
#X obj 256 174 inlet;
#X text 174 153 FILE;
#X text 255 152 LINE;
#X obj 266 304 print NEXT;
#X connect 1 0 0 0;
#X connect 2 0 3 0;
#X connect 3 0 1 0;
#X connect 4 0 1 0;
#X connect 5 0 4 0;
#X connect 6 0 1 0;
#X connect 7 0 2 0;
#X restore 134 444 pd nextline;
#X msg 195 40 read tracks/marin/fjord.txt cr;
#X msg 194 63 read tracks/marin/flying.txt cr;
#X msg 194 86 read tracks/marin/stairs.txt cr;
#X msg 193 109 read tracks/marin/Track 001.txt cr;
#X msg 192 132 read tracks/marin/Track 002.txt cr;
#X msg 191 153 read tracks/marin/Track 003.txt cr;
#X msg 190 176 read tracks/marin/Track 004.txt cr;
#X msg 190 198 read tracks/marin/Track 005.txt cr;
#X msg 189 221 read tracks/marin/Track 006.txt cr;
#X msg 188 242 read tracks/marin/Track 007.txt cr;
#X msg 187 265 read tracks/marin/Track 008.txt cr;
#X msg 187 287 read tracks/marin/Track 009.txt cr;
#X msg 186 310 read tracks/marin/Track 010.txt cr;
#X connect 0 0 4 1;
#X connect 0 0 5 1;
#X connect 1 0 0 0;
#X connect 4 0 2 0;
#X connect 5 0 3 0;
#X connect 6 0 5 0;
#X connect 6 0 4 0;
#X connect 7 0 5 0;
#X connect 7 0 4 0;
#X connect 8 0 5 0;
#X connect 8 0 4 0;
#X connect 9 0 5 0;
#X connect 9 0 4 0;
#X connect 10 0 5 0;
#X connect 10 0 4 0;
#X connect 11 0 5 0;
#X connect 11 0 4 0;
#X connect 12 0 5 0;
#X connect 12 0 4 0;
#X connect 13 0 5 0;
#X connect 13 0 4 0;
#X connect 14 0 5 0;
#X connect 14 0 4 0;
#X connect 15 0 5 0;
#X connect 15 0 4 0;
#X connect 16 0 5 0;
#X connect 16 0 4 0;
#X connect 17 0 5 0;
#X connect 17 0 4 0;
#X connect 18 0 5 0;
#X connect 18 0 4 0;
#X restore 150 -486 pd read me;
#X obj 193 -91 vsl 15 45 0 1 0 0 empty empty empty 0 -9 0 10 -228856
-1 -1 0 1;
#X obj 155 -93 *~ \$1;
#X obj 155 -124 r~ drums;
#X obj 155 -18 dac~;
#N canvas 0 22 450 300 (subpatch) 0;
#X array Synth2 300 float 1;
#A 0 0 0 0 0 0 0 0 0 0 0 0 0 0 0 0 0 0 0 0 0 0 0 0 0 0 0 0 0 0 0 0
0 0 0 0 0 0 0 0 0 0 0 0 0 0 0 0 0 0 0 0 0 0 0 0 0 0 0 0 0 0 0 0 0 0
0 0 0 0 0 0 0 0 0 0 0 0 0 0 0 0 0 0 0 0 0 0 0 0 0 0 0 0 0 0 0 0 0 0
0 0 0 0 0 0 0 0 0 0 0 0 0 0 0 0 0 0 0 0 0 0 0 0 0 0 0 0 0 0 0 0 0 0
0 0 0 0 0 0 0 0 0 0 0 0 0 0 0 0 0 0 0 0 0 0 0 0 0 0 0 0 0 0 0 0 0 0
0 0 0 0 0 0 0 0 0 0 0 0 0 0 0 0 0 0 0 0 0 0 0 0 0 0 0 0 0 0 0 0 0 0
0 0 0 0 0 0 0 0 0 0 0 0 0 0 0 0 0 0 0 0 0 0 0 0 0 0 0 0 0 0 0 0 0 0
0 0 0 0 0 0 0 0 0 0 0 0 0 0 0 0 0 0 0 0 0 0 0 0 0 0 0 0 0 0 0 0 0 0
0 0 0 0 0 0 0 0 0 0 0 0 0 0 0 0 0 0 0 0 0 0 0 0 0 0 0 0 0 0 0;
#X coords 0 -1 299 1 300 200 1;
#X restore 243 -191 graph;
#X connect 4 0 3 0;
#X connect 7 0 20 1;
#X connect 8 0 6 0;
#X connect 8 0 6 1;
#X connect 9 0 8 0;
#X connect 10 0 20 0;
#X connect 14 0 13 0;
#X connect 15 0 13 1;
#X connect 20 0 6 1;
#X connect 20 0 6 0;
#X connect 29 0 28 0;
#X connect 31 0 30 0;
#X connect 32 0 8 1;
#X connect 34 0 17 0;
#X connect 34 1 17 1;
#X connect 35 0 36 1;
#X connect 36 0 38 0;
#X connect 36 0 38 1;
#X connect 37 0 36 0;
